<svg width="90" height="90" viewBox="0 0 90 90" fill="none" xmlns="http://www.w3.org/2000/svg">
<path fill-rule="evenodd" clip-rule="evenodd" d="M0 45.0002C0 20.1473 20.1472 0 45.0001 0C69.8528 0 90 20.1473 90 45.0002C90 69.8532 69.8528 90.0003 45.0001 90.0003C20.1472 90.0003 0 69.8532 0 45.0002ZM45.0001 6.70819C23.8521 6.70819 6.70819 23.8521 6.70819 45.0002C6.70819 54.7837 10.3773 63.7106 16.4146 70.4788C22.7835 61.5783 33.2128 55.7694 45.0026 55.7694C56.7911 55.7694 67.219 61.577 73.5882 70.476C79.6242 63.7078 83.2918 54.7822 83.2918 45.0002C83.2918 23.8521 66.1478 6.70819 45.0001 6.70819ZM68.6461 75.1209C63.545 67.4919 54.8573 62.4776 45.0026 62.4776C35.1468 62.4776 26.4584 67.4933 21.3572 75.1237C27.8675 80.2403 36.0774 83.2921 45.0001 83.2921C53.9243 83.2921 62.1355 80.2396 68.6461 75.1209ZM28.407 37.9743C28.407 28.8097 35.8363 21.3803 45.0009 21.3803C54.1655 21.3803 61.5949 28.8097 61.5949 37.9743C61.5949 47.1389 54.1655 54.5682 45.0009 54.5682C35.8363 54.5682 28.407 47.1389 28.407 37.9743ZM45.0009 28.0885C39.5412 28.0885 35.1152 32.5145 35.1152 37.9743C35.1152 43.4341 39.5412 47.86 45.0009 47.86C50.4607 47.86 54.8867 43.4341 54.8867 37.9743C54.8867 32.5145 50.4607 28.0885 45.0009 28.0885Z" fill="#4A4A4A"/>
</svg>
